<?xml version="1.0" standalone="no"?>
<!DOCTYPE svg PUBLIC "-//W3C//DTD SVG 20010904//EN"
 "http://www.w3.org/TR/2001/REC-SVG-20010904/DTD/svg10.dtd">
<svg version="1.0" xmlns="http://www.w3.org/2000/svg"
 width="500.000000pt" height="500.000000pt" viewBox="0 0 500.000000 500.000000"
 preserveAspectRatio="xMidYMid meet">

<g transform="translate(0.000000,500.000000) scale(0.100000,-0.100000)"
fill="#000000" stroke="none">
<path d="M2177 3765 c-7 -16 -10 -17 -17 -5 -7 11 -10 7 -10 -15 l-1 -30 -15
25 c-14 24 -14 24 -9 -15 l6 -40 -21 38 c-11 20 -22 37 -25 37 -2 0 -2 -21 -1
-46 l4 -45 -29 27 c-27 26 -43 22 -17 -4 7 -7 8 -12 2 -12 -6 0 -15 5 -22 12
-16 16 -16 -4 1 -21 10 -11 9 -12 -2 -6 -11 6 -13 4 -8 -8 4 -12 2 -14 -11
-10 -13 5 -11 0 6 -19 l23 -26 -25 -6 c-13 -3 -33 -3 -43 1 -16 6 -16 5 -5
-10 8 -9 23 -19 34 -23 16 -5 18 -8 7 -15 -11 -8 -10 -12 5 -24 19 -14 19 -15
-7 -15 -15 0 -27 -4 -27 -10 0 -5 3 -9 8 -9 26 4 62 -3 62 -12 0 -7 -12 -9
-30 -7 -17 3 -33 1 -36 -4 -3 -4 -10 -8 -15 -8 -6 0 -7 5 -4 10 3 6 1 10 -5
10 -7 0 -7 7 1 23 l12 22 -23 -20 -23 -20 8 25 c7 23 7 23 -19 -5 -20 -23 -25
-24 -17 -8 16 31 13 40 -5 17 -14 -18 -15 -17 -11 14 2 17 2 32 0 32 -2 0 -12
-19 -22 -42 l-19 -43 4 45 4 45 -14 -35 -14 -35 -3 45 c-1 25 -4 35 -6 23 -5
-27 -20 -30 -26 -5 -3 9 -5 4 -6 -13 -1 -24 -3 -27 -12 -15 -7 11 -8 4 -4 -25
l6 -40 -20 35 c-15 26 -20 30 -21 16 0 -20 0 -20 -15 0 -19 26 -19 10 2 -29
15 -30 15 -31 0 -18 -13 10 -17 10 -17 1 0 -10 -3 -10 -15 0 -24 20 -26 7 -6
-33 l18 -36 -29 15 c-29 15 -29 15 -16 -8 7 -12 20 -29 28 -36 13 -11 11 -13
-11 -8 -18 4 -26 1 -26 -9 0 -8 4 -15 8 -15 4 0 6 -13 5 -30 -1 -19 3 -30 11
-30 12 0 17 -13 14 -32 0 -5 9 -8 21 -8 21 -1 21 -2 6 -11 -10 -5 -18 -15 -18
-20 0 -6 5 -7 12 -3 8 5 9 2 5 -10 -6 -14 -3 -16 15 -10 20 6 21 5 9 -10 -10
-12 -10 -16 -1 -16 7 0 10 -7 6 -16 -4 -10 -2 -13 6 -8 7 5 9 0 6 -14 -4 -12
-2 -20 3 -16 5 3 9 0 9 -6 0 -6 4 -9 9 -6 5 3 11 -4 15 -17 9 -32 8 -34 -14
-40 -11 -3 -18 -2 -15 3 7 11 -22 33 -35 25 -5 -3 -10 -1 -10 6 0 10 -3 10
-11 2 -7 -7 -25 -9 -40 -6 -19 3 -29 1 -29 -6 0 -7 -5 -9 -10 -6 -6 3 -13 -1
-16 -9 -3 -9 -10 -13 -15 -10 -5 3 -9 -4 -9 -16 0 -12 -4 -18 -10 -15 -9 6
-15 -22 -11 -52 1 -7 -3 -13 -9 -13 -6 0 -8 -5 -4 -11 3 -6 8 -34 11 -63 6
-72 9 -77 37 -70 33 8 46 -19 47 -96 1 -33 5 -57 10 -54 5 3 9 -11 9 -30 0
-48 15 -77 57 -112 92 -76 93 -77 118 -164 33 -111 44 -160 36 -160 -3 0 -38
41 -76 91 -38 51 -83 101 -98 113 -31 23 -70 92 -82 143 -3 18 -11 36 -16 39
-11 6 -28 44 -25 56 0 3 -10 18 -23 32 -14 14 -22 29 -18 32 4 4 -6 23 -21 43
-40 52 -62 88 -65 108 -2 10 -8 28 -15 40 -18 32 -15 38 9 17 22 -19 22 -19
10 3 -16 31 -14 35 10 23 20 -11 20 -11 3 15 l-17 26 29 -11 c28 -11 28 -11 9
9 -10 12 -13 21 -7 21 17 0 7 33 -14 41 -18 7 -17 8 3 8 22 1 44 21 22 21 -8
0 -8 4 1 15 10 13 9 15 -11 15 -22 1 -21 3 11 21 24 14 28 19 13 15 -13 -2
-23 0 -23 5 0 5 4 9 8 9 5 0 17 7 28 15 18 14 17 15 -10 9 l-28 -7 17 27 c17
25 17 26 -1 20 -12 -3 -6 7 16 27 22 20 28 29 15 24 -11 -4 -32 -8 -47 -10
l-28 -2 20 32 20 32 -26 -3 c-21 -2 -25 1 -21 17 4 17 3 18 -9 8 -11 -9 -14
-8 -14 2 0 8 -9 4 -21 -11 l-20 -25 6 24 c5 15 3 21 -3 17 -7 -4 -12 7 -14 26
-3 32 -4 32 -20 -17 l-16 -50 -2 40 c-2 34 -3 36 -9 15 -7 -24 -8 -24 -16 10
-7 32 -8 33 -12 10 l-5 -24 -14 24 c-15 25 -15 25 -11 -9 4 -32 3 -33 -11 -15
-14 18 -14 18 -8 1 3 -11 9 -31 12 -45 l6 -27 -21 30 c-11 17 -21 24 -21 16 0
-11 -3 -11 -15 -1 -20 16 -19 5 1 -26 17 -25 17 -25 -9 -20 -15 2 -32 8 -38
12 -16 9 -1 -36 19 -58 18 -21 10 -23 -21 -6 -20 10 -21 10 -8 -5 7 -10 10
-17 5 -17 -5 0 0 -7 10 -15 19 -15 19 -15 -2 -15 -24 0 -25 -16 -4 -39 8 -8
11 -22 9 -32 -4 -14 0 -19 15 -19 16 0 19 -5 15 -20 -4 -17 -2 -20 15 -14 19
6 19 5 3 -20 -16 -24 -16 -26 -1 -20 12 5 15 2 10 -11 -6 -15 -4 -16 15 -5 21
11 22 10 11 -10 -8 -15 -8 -20 -1 -16 6 4 11 0 11 -9 0 -9 4 -13 10 -10 6 4 9
-4 7 -17 -1 -15 3 -23 13 -23 17 0 28 -20 29 -52 1 -13 10 -32 21 -43 11 -11
20 -27 20 -36 0 -8 4 -13 9 -10 11 7 45 -69 38 -87 -3 -8 1 -27 9 -42 8 -15
14 -33 14 -40 0 -8 6 -20 14 -27 8 -8 16 -23 18 -34 2 -10 9 -18 15 -17 6 1
14 -18 17 -42 4 -25 11 -47 17 -50 23 -15 7 -27 -28 -22 -89 13 -104 19 -92
33 9 11 7 14 -11 14 -13 0 -21 3 -17 6 9 10 -20 35 -43 37 -12 1 -20 8 -20 20
0 10 -4 16 -9 12 -5 -3 -13 -1 -16 5 -5 8 -11 7 -21 -1 -11 -9 -14 -7 -14 10
0 12 -4 20 -9 17 -5 -3 -14 1 -21 9 -7 8 -16 12 -21 9 -5 -3 -9 0 -9 6 0 6 -4
8 -10 5 -5 -3 -10 -1 -10 5 0 6 -4 9 -9 6 -5 -3 -12 2 -16 12 -6 16 -7 16 -16
-1 -6 -9 -15 -14 -21 -11 -8 5 -9 1 -4 -11 5 -14 4 -16 -8 -6 -10 9 -20 9 -40
0 -14 -7 -26 -16 -26 -20 0 -4 -9 -11 -21 -14 -12 -4 -18 -12 -15 -21 3 -8 1
-14 -4 -14 -4 0 -7 -51 -6 -112 1 -96 4 -113 18 -116 9 -2 15 -9 12 -16 -3 -9
4 -12 25 -11 21 1 28 -2 24 -12 -5 -13 6 -17 39 -14 10 1 26 -3 38 -9 12 -6
20 -7 20 -1 0 5 11 8 25 5 18 -3 25 0 25 12 0 11 4 14 13 7 10 -8 32 -10 40
-3 1 1 9 3 17 5 8 2 36 10 62 19 26 9 59 14 73 12 14 -3 37 1 51 9 14 7 62 16
105 20 69 6 83 5 100 -10 26 -24 24 -35 -5 -35 -40 0 -79 -19 -107 -52 l-26
-30 -48 21 c-26 11 -58 21 -72 21 -30 0 -89 -24 -109 -45 -22 -22 -28 -111 -8
-119 8 -3 14 -11 13 -18 -3 -21 12 -48 28 -48 8 0 11 -4 8 -10 -3 -5 3 -10 14
-10 12 0 21 -5 21 -10 0 -7 6 -7 18 -1 13 7 22 7 29 0 13 -13 83 8 96 29 5 7
11 10 15 8 4 -2 27 13 52 34 41 35 43 40 33 63 -10 22 -9 30 8 51 21 27 48 32
108 20 27 -6 40 -20 82 -92 28 -47 51 -96 52 -109 2 -23 -1 -24 -58 -26 -44
-2 -75 -10 -117 -31 l-56 -29 -87 12 c-48 7 -141 28 -208 47 l-121 35 -67 -21
c-37 -11 -92 -20 -123 -20 l-56 0 0 -92 c0 -116 20 -163 88 -206 26 -16 344
-191 707 -388 l660 -359 70 0 70 0 500 273 c766 418 876 479 897 499 47 41 58
88 58 252 l0 154 -42 -7 c-97 -15 -185 -18 -221 -8 -34 9 -42 8 -74 -14 -42
-28 -73 -30 -223 -9 -162 22 -159 23 -242 -44 l-74 -58 -105 -5 c-57 -3 -124
-11 -149 -18 -42 -11 -51 -10 -128 19 -46 17 -95 31 -109 31 -15 0 -23 3 -20
7 4 3 -1 12 -11 19 -13 10 -13 13 -3 14 9 0 7 6 -8 19 -14 12 -18 22 -11 26
14 9 -6 35 -27 35 -12 0 -13 3 -4 13 8 11 4 13 -24 12 -27 0 -32 2 -23 13 15
18 -10 36 -29 20 -9 -7 -13 -7 -13 1 0 7 -4 10 -9 7 -5 -4 -11 -1 -13 6 -3 7
11 27 30 45 36 34 52 41 52 23 0 -6 11 -3 24 5 13 9 28 15 32 13 5 -1 19 3 32
10 12 7 22 10 22 7 0 -3 11 2 24 10 13 9 32 17 42 19 11 2 35 6 54 10 19 3 38
5 41 3 4 -1 16 7 28 17 12 11 21 16 21 11 0 -4 7 -2 15 5 10 9 15 9 15 1 0
-12 21 -11 31 2 3 4 16 9 27 10 12 1 22 8 23 17 1 8 5 4 9 -10 4 -14 8 -20 9
-13 1 7 8 10 16 7 11 -4 15 1 16 17 1 23 1 22 13 -5 13 -28 13 -28 19 -6 5 20
8 21 21 10 13 -10 16 -10 16 4 0 10 5 14 10 11 6 -3 10 -1 10 6 0 9 3 9 14 0
10 -9 15 -8 19 3 4 9 -1 20 -11 26 -14 10 -13 10 8 6 36 -7 60 9 29 19 -22 8
-21 9 16 20 35 10 37 12 18 19 -24 8 -21 36 4 36 13 0 13 3 3 15 -8 9 -22 13
-39 9 -25 -5 -25 -5 -7 10 11 9 24 16 30 16 5 0 6 3 3 7 -4 3 -1 13 6 21 10
13 9 15 -5 9 -13 -4 -15 -2 -11 11 6 15 5 16 -12 2 -17 -14 -18 -13 -11 4 6
19 6 19 -12 3 -26 -24 -36 -21 -18 5 22 31 20 45 -4 23 -11 -10 -20 -14 -20
-9 0 5 -5 2 -11 -6 -8 -12 -10 -9 -6 12 2 15 0 25 -4 22 -5 -3 -9 3 -10 13 0
16 -1 16 -9 -2 -6 -13 -9 -15 -9 -5 -1 13 -3 13 -10 1 -7 -11 -10 -10 -14 5
-3 14 -6 11 -12 -13 -6 -27 -9 -30 -21 -18 -8 7 -18 24 -23 37 -9 20 -10 18
-11 -17 0 -29 -3 -36 -10 -25 -8 12 -10 12 -15 -2 -4 -10 -3 -23 1 -30 5 -8 1
-8 -11 2 -17 14 -18 13 -11 -15 l7 -30 -21 25 -20 25 10 -28 c13 -38 13 -42
-5 -27 -12 10 -15 10 -15 0 0 -7 -7 -10 -16 -6 -15 6 -15 4 1 -20 16 -25 16
-26 -3 -20 -15 5 -21 1 -27 -16 -4 -13 -7 -26 -6 -30 1 -5 -9 -8 -22 -9 -21 0
-21 -1 -2 -9 19 -8 19 -8 -5 -18 l-25 -11 30 -1 30 -2 -35 -12 c-19 -6 -41
-15 -48 -19 -12 -8 -76 -22 -159 -33 -30 -5 -40 -10 -36 -20 4 -11 -5 -14 -36
-14 -30 0 -39 -3 -35 -14 3 -9 -10 -19 -43 -30 -84 -30 -86 -30 -81 -15 3 8
10 13 15 12 6 -1 18 16 28 37 20 45 45 71 45 49 0 -8 10 -2 21 14 11 15 24 25
29 22 4 -3 13 9 20 25 7 16 16 28 20 25 5 -3 18 10 29 29 20 31 46 51 63 48 4
-1 13 8 19 19 9 17 13 19 20 8 7 -11 9 -11 9 2 0 9 7 19 15 23 8 3 15 13 15
21 0 9 4 14 9 10 5 -3 13 4 16 16 6 17 9 19 16 8 7 -11 9 -11 9 -1 0 7 5 10
10 7 6 -3 10 4 10 16 0 22 0 22 14 4 13 -18 14 -17 9 10 -5 29 -5 29 10 10 14
-19 15 -18 10 10 -5 29 -5 29 11 10 15 -19 15 -19 16 -1 0 15 2 16 15 6 14
-11 14 -10 5 14 -15 39 -13 42 13 18 21 -20 23 -20 23 -2 0 10 -5 16 -10 13
-5 -3 -6 -1 -2 6 5 7 16 9 28 5 14 -4 18 -2 14 5 -4 6 0 14 8 17 9 3 13 10 10
15 -3 5 2 9 11 9 9 0 13 5 10 10 -3 6 0 10 7 11 7 1 2 4 -12 9 l-25 7 25 11
c14 6 21 11 15 12 -5 1 -1 5 10 10 17 7 14 9 -15 10 l-35 2 30 13 c17 8 26 14
21 15 -6 0 -1 7 10 16 19 15 18 15 -3 11 -13 -3 -23 -1 -23 5 0 6 -8 7 -17 4
-10 -3 -5 5 10 18 28 22 28 23 8 29 -13 3 -31 -3 -48 -16 -27 -22 -25 -10 6
27 9 11 10 16 4 12 -16 -9 -18 20 -3 29 6 3 10 11 10 17 0 7 -6 6 -15 -2 -12
-10 -15 -9 -15 6 -1 15 -4 13 -16 -8 -8 -16 -17 -28 -20 -28 -2 0 -2 12 1 28
5 25 4 25 -10 -5 -8 -18 -17 -33 -19 -33 -2 0 -2 21 0 48 4 45 4 46 -9 19 -7
-15 -16 -24 -20 -21 -4 4 -7 2 -7 -4 0 -25 -20 -10 -21 16 -2 26 -2 26 -6 2
l-5 -24 -14 24 -13 25 -1 -25 c0 -20 -2 -22 -10 -10 -8 13 -10 12 -10 -4 0
-20 0 -20 -15 0 -9 12 -13 13 -11 4 2 -8 7 -28 10 -45 l7 -30 -21 25 c-17 21
-19 22 -14 5 5 -16 1 -14 -20 8 -32 34 -32 29 -5 -26 15 -29 17 -38 7 -29 -13
10 -17 10 -21 -2 -3 -7 0 -19 6 -25 8 -8 8 -11 0 -11 -7 0 -15 5 -18 10 -3 6
-11 10 -17 10 -7 0 1 -13 17 -30 30 -32 28 -37 -8 -19 -21 11 -21 10 2 -15 20
-21 21 -26 8 -26 -10 0 -14 -5 -11 -15 4 -9 0 -15 -7 -15 -8 -1 -3 -7 11 -15
l25 -14 -35 -1 c-26 0 -31 -3 -20 -10 9 -6 11 -10 3 -10 -7 0 -10 -7 -7 -15 4
-9 0 -15 -7 -16 -8 -1 -3 -4 11 -8 l25 -7 -30 -18 -30 -17 30 6 29 6 -19 -22
-20 -22 25 7 c24 7 24 6 -5 -19 -16 -14 -29 -29 -28 -34 3 -11 -110 -91 -129
-91 -10 0 -9 -3 2 -10 12 -7 6 -13 -29 -27 -33 -13 -39 -18 -25 -23 15 -5 10
-11 -25 -32 -27 -16 -38 -28 -29 -31 8 -3 -7 -24 -46 -62 -51 -51 -68 -61
-139 -81 -95 -28 -87 -27 -87 -13 0 7 36 47 80 89 53 51 80 85 80 99 0 12 4
19 10 16 6 -4 10 10 10 35 0 23 4 39 9 35 6 -3 13 10 17 30 6 33 23 49 25 23
1 -7 7 7 14 32 7 25 14 36 14 25 2 -18 3 -18 15 4 13 23 14 23 19 5 4 -17 5
-17 6 3 0 12 6 34 12 50 10 26 12 27 19 8 7 -17 9 -16 9 10 2 37 20 71 22 40
1 -11 5 0 10 25 10 56 45 126 82 163 15 16 27 34 27 40 0 7 4 6 10 -3 8 -12
10 -11 10 8 0 12 5 22 10 22 6 0 10 8 10 18 0 9 7 26 15 36 15 20 15 20 16 0
0 -12 5 -6 13 16 9 25 15 31 19 20 4 -8 5 -5 3 8 -4 20 -2 21 11 10 14 -11 15
-10 8 12 -7 23 -7 24 10 10 17 -14 18 -13 12 2 -4 13 -2 15 10 11 13 -5 12 -1
-3 22 -18 28 -18 28 3 16 29 -15 32 -14 26 8 -3 13 2 20 17 24 12 3 19 10 16
15 -3 5 1 16 10 23 14 12 14 14 -1 25 -15 11 -15 13 2 26 28 20 28 41 1 32
-22 -6 -22 -6 -7 12 29 34 34 48 16 41 -10 -3 -17 -2 -17 4 0 6 -4 7 -10 4 -5
-3 -10 -2 -10 4 0 5 5 13 10 16 6 3 10 11 10 17 0 6 -7 5 -17 -3 -15 -12 -16
-12 -10 6 5 14 0 10 -17 -10 -29 -35 -33 -28 -9 18 13 27 14 30 1 19 -13 -10
-15 -8 -12 15 2 16 1 22 -2 16 -8 -19 -27 -16 -20 3 3 8 2 12 -4 9 -6 -3 -11
-16 -11 -28 -1 -17 -3 -15 -8 8 -7 30 -8 30 -18 -15 l-11 -45 -1 37 c-1 43
-21 63 -21 21 0 -22 -2 -25 -10 -13 -8 12 -10 12 -10 -5 -1 -18 -2 -17 -15 5
-13 22 -14 23 -15 5 l-1 -20 -15 20 c-16 20 -16 19 -9 -4 5 -16 4 -21 -4 -17
-6 4 -11 2 -11 -4 0 -6 -5 -8 -12 -4 -8 5 -9 2 -5 -9 22 -53 21 -53 5 -40 -8
7 -18 10 -21 6 -4 -3 -13 0 -22 7 -8 7 -15 8 -15 2 0 -5 7 -15 15 -22 8 -7 15
-17 15 -22 0 -6 -7 -5 -15 2 -13 11 -14 10 -9 -6 4 -10 11 -25 17 -31 12 -16
3 -16 -26 -2 -15 7 -13 2 8 -15 25 -22 27 -26 11 -26 -20 0 -20 0 0 -16 13
-11 15 -17 6 -20 -6 -3 -10 -10 -6 -15 3 -5 -5 -9 -18 -10 -19 -1 -18 -3 9
-11 l31 -10 -26 -24 c-16 -14 -21 -23 -13 -24 11 0 11 -3 0 -16 -12 -15 -11
-16 11 -9 25 8 25 7 7 -13 -18 -20 -18 -20 3 -15 21 6 21 4 9 -18 -11 -22 -11
-23 4 -10 10 8 17 9 17 3 0 -6 -5 -14 -10 -17 -6 -4 -16 -21 -24 -38 -7 -18
-32 -50 -54 -72 -22 -22 -38 -43 -36 -46 2 -4 -10 -19 -28 -33 -18 -14 -27
-26 -20 -26 25 0 11 -20 -33 -46 -25 -14 -45 -27 -45 -29 0 -1 12 0 28 2 26 5
26 4 -13 -32 -26 -24 -33 -35 -20 -31 15 5 11 -2 -13 -24 -18 -16 -29 -30 -25
-30 4 0 -6 -13 -22 -30 -16 -16 -25 -30 -21 -30 4 0 0 -10 -8 -22 -12 -16 -13
-25 -4 -35 9 -11 8 -21 -5 -43 -12 -19 -14 -29 -6 -32 7 -2 1 -16 -14 -33 -39
-46 -51 -25 -44 77 3 46 10 100 17 121 10 34 13 37 24 22 10 -14 12 -11 9 21
-4 39 -4 39 12 14 l15 -25 -7 30 c-6 28 -5 29 12 15 16 -14 17 -13 12 5 -3 11
-9 34 -13 50 -7 27 -6 29 9 16 20 -16 21 -9 7 39 -11 39 -2 153 11 144 5 -3 9
3 9 13 1 46 21 167 28 172 13 9 25 66 31 141 1 20 3 22 11 10 8 -13 10 -12 11
5 1 11 1 26 0 34 -2 7 2 10 8 6 15 -9 14 8 -1 24 -11 12 -10 13 6 7 20 -7 20
-7 1 14 -19 21 -19 21 9 10 26 -9 27 -9 16 5 -10 13 -9 15 6 15 16 0 16 3 -6
20 -25 19 -25 20 -3 20 17 0 21 4 16 16 -4 10 1 22 11 29 11 9 13 15 6 20 -5
3 -8 11 -5 16 4 5 0 9 -7 9 -10 0 -10 2 1 9 8 5 16 17 17 26 2 12 -3 14 -19 9
-20 -6 -20 -5 -8 10 8 9 11 19 8 23 -4 3 -1 13 6 22 10 13 7 12 -15 -2 -16
-10 -28 -13 -28 -8 0 5 4 12 9 15 5 3 9 17 9 31 0 25 -1 25 -19 9 -14 -13 -19
-14 -19 -4 0 9 -5 7 -15 -6 -14 -18 -14 -17 -5 9 14 40 13 52 -5 37 -8 -7 -15
-9 -16 -4 0 5 -7 -7 -14 -26 l-13 -35 -1 45 c-1 31 -4 41 -10 31 -7 -11 -10
-7 -13 15 -3 25 -4 26 -11 9z m-131 -316 c3 -5 -8 -11 -23 -14 -15 -3 -40 -9
-55 -14 -27 -9 -27 -9 -12 15 12 18 24 23 50 22 19 -1 37 -5 40 -9z m-6 -39
c-8 -5 -19 -10 -25 -10 -5 0 -3 5 5 10 8 5 20 10 25 10 6 0 3 -5 -5 -10z m23
-29 c-21 -17 -21 -18 -3 -31 14 -10 16 -17 8 -27 -13 -17 4 -17 21 0 11 10 13
9 7 -5 -18 -50 -17 -52 4 -28 l22 25 -6 -35 c-6 -33 -6 -33 9 -15 16 19 16 19
10 -10 -4 -16 -8 -47 -9 -67 -2 -21 -14 -60 -28 -87 -15 -31 -20 -52 -14 -54
7 -2 4 -14 -7 -30 -19 -30 -22 -41 -7 -32 18 11 11 -15 -17 -62 -25 -43 -25
-45 -5 -34 27 14 30 -3 7 -33 -17 -23 -20 -40 -5 -31 6 3 10 2 10 -4 0 -5 -4
-13 -10 -16 -5 -3 -10 -11 -10 -16 0 -6 4 -8 9 -5 9 6 -12 -100 -21 -110 -3
-2 -11 9 -18 27 -11 25 -11 32 0 39 10 6 8 14 -9 38 -26 37 -26 43 -3 35 12
-5 9 3 -11 27 -20 23 -25 35 -17 40 9 6 9 9 1 14 -15 10 -74 126 -67 133 3 3
-1 18 -9 34 -19 37 -19 45 1 28 15 -12 16 -11 9 11 -7 23 -7 24 10 10 17 -14
17 -13 10 9 -6 19 -4 23 8 18 11 -4 14 -2 10 9 -3 7 0 14 6 14 14 0 2 32 -18
47 -14 10 -10 13 19 13 19 1 30 4 23 6 -7 3 -10 11 -7 19 3 7 -3 15 -13 18
-15 4 -14 6 6 13 23 7 23 8 6 14 -18 6 -17 9 10 23 30 16 30 16 5 17 l-25 1
24 13 c16 9 20 16 12 20 -6 4 -9 12 -5 17 3 5 10 7 15 4 5 -4 17 -1 26 4 10 6
27 10 38 10 19 0 19 0 -2 -18z m-269 -387 c9 -3 16 -15 16 -25 0 -10 4 -19 10
-19 11 0 19 -42 25 -120 5 -72 18 -122 29 -118 6 2 18 -11 28 -28 l19 -32 -36
-22 c-20 -12 -42 -37 -50 -56 -8 -19 -19 -34 -25 -34 -6 0 -29 17 -50 38 -37
34 -40 42 -45 106 -4 38 -12 86 -19 106 -12 34 -11 39 11 60 12 12 23 26 23
30 0 4 10 10 22 13 12 4 19 9 15 13 -4 4 -3 12 2 18 16 21 21 64 8 69 -6 3 -9
6 -5 6 3 1 13 -2 22 -5z m180 -433 c21 -40 21 -213 -1 -254 l-16 -32 -25 65
c-18 46 -27 90 -30 151 -4 81 -3 86 20 96 28 13 34 10 52 -26z m310 -401 c33
-12 34 -29 1 -25 -14 1 -25 -2 -25 -7 0 -5 -9 -4 -20 2 -14 7 -20 7 -20 0 0
-12 -46 -12 -75 -1 -18 8 -16 10 15 24 41 18 88 21 124 7z m146 -14 c0 -3 -4
-8 -10 -11 -5 -3 -10 -1 -10 4 0 6 5 11 10 11 6 0 10 -2 10 -4z m-350 -147 c0
-6 7 -8 16 -5 8 3 12 2 9 -4 -3 -6 2 -10 13 -10 26 0 34 -11 19 -28 -10 -13
-8 -14 13 -7 20 6 23 5 13 -6 -18 -18 -16 -30 2 -23 8 4 15 2 15 -4 0 -6 11
-14 25 -19 17 -5 22 -12 16 -21 -6 -10 -24 -7 -82 16 -41 16 -89 33 -106 37
-37 7 -37 9 -22 54 9 25 16 31 40 31 16 0 29 -5 29 -11z m1401 -125 c139 -83
215 -137 142 -100 -35 17 -255 149 -288 172 -11 8 -14 14 -8 14 6 0 75 -39
154 -86z m158 -11 c52 -31 89 -59 83 -61 -10 -3 -192 104 -192 114 0 10 20 0
109 -53z m-2274 -58 l40 -36 -45 30 c-54 37 -90 67 -90 76 0 9 46 -25 95 -70z
m2395 55 c0 -5 -2 -10 -4 -10 -3 0 -8 5 -11 10 -3 6 -1 10 4 10 6 0 11 -4 11
-10z m-969 -90 c73 -49 128 -90 122 -90 -14 0 -249 155 -258 170 -3 6 -4 10
-2 10 2 0 64 -40 138 -90z m305 29 c51 -28 108 -65 126 -81 18 -16 29 -27 23
-25 -20 8 -255 150 -255 153 0 10 20 1 106 -47z m-1610 -16 c-7 -7 -26 7 -26
19 0 6 6 6 15 -2 9 -7 13 -15 11 -17z m239 -17 c17 -14 25 -25 19 -26 -6 0
-28 16 -50 35 -43 39 -17 31 31 -9z m1531 18 c18 -14 18 -14 -6 -3 -31 14 -36
19 -24 19 6 0 19 -7 30 -16z m-301 -34 c3 -6 -1 -7 -9 -4 -18 7 -21 14 -7 14
6 0 13 -4 16 -10z"/>
</g>
</svg>
